<?xml version="1.0" ?><svg xmlns="http://www.w3.org/2000/svg" xmlns:xlink="http://www.w3.org/1999/xlink" version="1.1" id="Layer_1" viewBox="0 0 1000 1000" style="enable-background:new 0 0 1000 1000;" xml:space="preserve"><style type="text/css">
	.st0{fill:#12131A;}
	.st1{fill:#ED892F;}
</style><g><g><g><path class="st0" d="M500,152.39c-191.59,0-347.53,155.94-347.53,347.53c0,63.65,17.58,126.15,50.95,180.52l0.16,0.33l-0.16,0.33     l-38.09,128.76c-1.95,7-0.16,14.32,4.88,19.53c5.05,5.05,12.53,7,19.53,5.05l129.24-37.93l0.33,0.16     c54.53,33.37,117.04,50.95,180.68,50.95c191.59,0,347.53-155.94,347.53-347.53S691.59,152.39,500,152.39L500,152.39z M500,808.05     c-59.41,0-117.2-17.09-167.33-49.65c-4.88-3.09-10.74-3.91-16.28-2.44L213.35,786.4l30.44-103.04     c1.63-5.53,0.81-11.39-2.44-16.28c-32.39-49.97-49.48-107.76-49.48-167.17c0-169.94,138.2-308.13,308.13-308.13     s308.13,138.2,308.13,308.13S669.94,808.05,500,808.05L500,808.05z"/></g></g><g><g><path class="st1" d="M498.21,627.21c10.74,0,19.53,8.79,19.53,19.53s-8.79,19.53-19.53,19.53c-10.74,0-19.53-8.79-19.53-19.53     C478.68,635.84,487.47,627.21,498.21,627.21z"/></g><g><g><path class="st1" d="M599.78,438.39c0,25.07-9.12,49-25.88,67.71l-47.21,52.74c-5.53,6.19-8.63,14.16-8.63,22.46      c0,10.91-8.95,19.86-19.86,19.86s-19.86-8.95-19.86-19.86c0-18.07,6.67-35.49,18.72-48.83l47.21-52.74      c10.09-11.39,15.79-25.88,15.79-41.18c0-16.77-6.67-32.39-18.72-44.28c-11.72-11.39-26.86-17.58-43.14-17.58      c-0.49,0-0.98,0-1.46,0c-21.65,0.49-41.18,12.37-52.09,31.58c-2.12,3.91-3.91,7.98-5.37,12.21      c-2.6,8.14-10.58,13.84-19.53,13.67c-6.35-0.16-12.05-3.09-15.79-8.3c-3.58-5.05-4.72-11.23-2.93-17.09      c13.02-42.32,52.9-71.78,97.18-71.78C554.2,336.82,599.78,382.39,599.78,438.39L599.78,438.39z"/></g></g></g></g></svg>