<?xml version="1.0" ?><svg id="Layer_1" style="enable-background:new 0 0 32 32;" version="1.1" viewBox="0 0 32 32" xml:space="preserve" xmlns="http://www.w3.org/2000/svg" xmlns:xlink="http://www.w3.org/1999/xlink"><style type="text/css">
	.st0{fill:#FBC34E;}
	.st1{opacity:0.05;}
</style><g id="Gear"><g><path class="st0" d="M28.03,12.83l-0.47-0.17c-0.27-0.1-0.48-0.31-0.58-0.57c-0.13-0.37-0.28-0.74-0.45-1.09    c-0.12-0.25-0.11-0.55,0.01-0.82l0.21-0.45c0.52-1.14,0.28-2.5-0.6-3.38l-0.5-0.5c-0.89-0.88-2.24-1.12-3.38-0.6l-0.44,0.21    C21.55,5.58,21.25,5.59,21,5.47c-0.35-0.17-0.72-0.32-1.08-0.45c-0.27-0.1-0.48-0.31-0.58-0.58l-0.17-0.47    C18.74,2.79,17.6,2,16.35,2h-0.7c-1.25,0-2.39,0.79-2.82,1.97l-0.17,0.47c-0.1,0.27-0.31,0.48-0.57,0.58    C11.72,5.15,11.35,5.3,11,5.47c-0.25,0.11-0.55,0.11-0.82-0.01L9.73,5.25c-1.14-0.52-2.5-0.28-3.38,0.6l-0.5,0.5    c-0.88,0.88-1.12,2.24-0.6,3.38l0.21,0.44c0.12,0.28,0.13,0.58,0.01,0.83c-0.17,0.35-0.32,0.72-0.45,1.08    c-0.1,0.27-0.31,0.48-0.58,0.58l-0.47,0.17C2.79,13.26,2,14.4,2,15.65v0.7c0,1.25,0.79,2.39,1.97,2.82l0.47,0.17    c0.27,0.1,0.48,0.31,0.58,0.57C5.15,20.28,5.3,20.65,5.47,21c0.12,0.25,0.11,0.55-0.01,0.82l-0.21,0.45    c-0.52,1.14-0.28,2.5,0.6,3.38l0.5,0.5c0.89,0.88,2.24,1.12,3.38,0.6l0.44-0.21c0.28-0.12,0.58-0.12,0.84,0    c0.34,0.16,0.71,0.31,1.07,0.44c0.27,0.1,0.48,0.31,0.58,0.58l0.17,0.47C13.26,29.21,14.4,30,15.65,30h0.7    c1.25,0,2.39-0.79,2.82-1.97l0.17-0.47c0.1-0.27,0.31-0.48,0.57-0.58c0.37-0.13,0.74-0.28,1.09-0.45    c0.25-0.11,0.55-0.11,0.82,0.01l0.45,0.21c1.14,0.52,2.49,0.28,3.38-0.6l0.5-0.5c0.88-0.88,1.12-2.24,0.6-3.38l-0.21-0.44    c-0.12-0.28-0.13-0.58-0.01-0.83c0.17-0.35,0.32-0.72,0.45-1.08c0.1-0.27,0.31-0.48,0.58-0.58l0.47-0.17    C29.21,18.74,30,17.6,30,16.35v-0.7C30,14.4,29.21,13.26,28.03,12.83z M16,21.36c-2.96,0-5.36-2.4-5.36-5.36s2.4-5.36,5.36-5.36    s5.36,2.4,5.36,5.36S18.96,21.36,16,21.36z"/><g class="st1"><path d="M30,15.65v0.7c0,1.25-0.79,2.39-1.97,2.82l-0.47,0.17c-0.27,0.1-0.48,0.31-0.58,0.58c-0.13,0.36-0.28,0.73-0.45,1.08     c-0.12,0.25-0.11,0.55,0.01,0.83l0.21,0.44c0.52,1.14,0.28,2.5-0.6,3.38l-0.5,0.5c-0.89,0.88-2.24,1.12-3.38,0.6l-0.45-0.21     c-0.27-0.12-0.57-0.12-0.82-0.01c-0.35,0.17-0.72,0.32-1.09,0.45c-0.26,0.1-0.47,0.31-0.57,0.58l-0.17,0.47     C18.74,29.21,17.6,30,16.35,30H16v-8.64c2.96,0,5.36-2.4,5.36-5.36s-2.4-5.36-5.36-5.36V2h0.35c1.25,0,2.39,0.79,2.82,1.97     l0.17,0.47c0.1,0.27,0.31,0.48,0.58,0.58C20.28,5.15,20.65,5.3,21,5.47c0.25,0.12,0.55,0.11,0.83-0.01l0.44-0.21     c1.14-0.52,2.49-0.28,3.38,0.6l0.5,0.5c0.88,0.88,1.12,2.24,0.6,3.38l-0.21,0.45c-0.12,0.27-0.13,0.57-0.01,0.82     c0.17,0.35,0.32,0.72,0.45,1.09c0.1,0.26,0.31,0.47,0.58,0.57l0.47,0.17C29.21,13.26,30,14.4,30,15.65z"/></g></g></g></svg>