<?xml version="1.0" encoding="UTF-8"?>
<svg id="Capa_1" xmlns="http://www.w3.org/2000/svg" version="1.1" viewBox="0 0 111 123">
  <!-- Generator: Adobe Illustrator 29.7.1, SVG Export Plug-In . SVG Version: 2.1.1 Build 8)  -->
  <path d="M86.6,65.5H30.4v41.3h56.2v-41.3h0ZM80.6,19.9h-12.9v20.9h12.9v-20.9h0ZM63.8,19.9h-27.8v20.9h27.8v-20.9h0ZM32,19.9H15.1v86.8h10.9v-43.2c0-1.3,1.1-2.4,2.4-2.4h60.1c1.3,0,2.4,1.1,2.4,2.4v43.2h10.9V30.4l-10.4-10.5h-6.7v24.6h-52.7v-24.6h0ZM21.3,29.5c-1.9,0-3.4-1.5-3.4-3.4s1.5-3.4,3.4-3.4,3.4,1.5,3.4,3.4c0,1.9-1.6,3.4-3.4,3.4h0Z" fill="#d27d00"/>
  <rect id="_x3C_Slice_x3E_" width="111" height="123" fill="none"/>
</svg>