<?xml version="1.0" encoding="UTF-8"?>
<!DOCTYPE svg PUBLIC "-//W3C//DTD SVG 1.1//EN" "http://www.w3.org/Graphics/SVG/1.1/DTD/svg11.dtd">
<svg xmlns="http://www.w3.org/2000/svg" version="1.1" width="2790px" height="3242px" style="shape-rendering:geometricPrecision; text-rendering:geometricPrecision; image-rendering:optimizeQuality; fill-rule:evenodd; clip-rule:evenodd" xmlns:xlink="http://www.w3.org/1999/xlink">
<g><path style="opacity:1" fill="#a79c21" d="M 1384.5,-0.5 C 1386.5,-0.5 1388.5,-0.5 1390.5,-0.5C 1392.93,0.551166 1395.26,1.8845 1397.5,3.5C 1397.5,178.833 1397.5,354.167 1397.5,529.5C 1409.19,529.946 1420.86,530.78 1432.5,532C 1433.42,532.278 1434.08,532.778 1434.5,533.5C 1329.2,524.043 1227.87,539.876 1130.5,581C 904.163,679.512 754.163,846.678 680.5,1082.5C 692.472,1118.05 712.306,1123.39 740,1098.5C 760.391,1041.39 785.391,986.385 815,933.5C 904.354,792.535 1027.19,692.369 1183.5,633C 1245.48,614.455 1308.81,604.622 1373.5,603.5C 1381,607.001 1389,608.334 1397.5,607.5C 1398.12,639.921 1396.79,672.255 1393.5,704.5C 1278.23,708.649 1170.9,739.815 1071.5,798C 1048.34,819.839 1024,840.173 998.5,859C 914.95,943.522 853.784,1042.36 815,1155.5C 777.937,1212.65 725.771,1247.81 658.5,1261C 639.715,1278.91 638.715,1297.75 655.5,1317.5C 667.33,1323.9 679.664,1325.07 692.5,1321C 719.32,1311.17 745.654,1300.17 771.5,1288C 790.89,1269.82 811.556,1253.32 833.5,1238.5C 867.646,1199.88 890.48,1155.21 902,1104.5C 954.096,987.739 1035.6,897.572 1146.5,834C 1200.29,811.069 1255.63,792.736 1312.5,779C 1340.71,775.302 1369.04,773.469 1397.5,773.5C 1397.5,805.833 1397.5,838.167 1397.5,870.5C 1382.07,869.952 1366.74,870.786 1351.5,873C 1355.69,873.176 1359.69,873.676 1363.5,874.5C 1242.83,890.252 1140.66,941.919 1057,1029.5C 1035.42,1061.66 1014.08,1094 993,1126.5C 962.642,1250.83 889.809,1340.33 774.5,1395C 731.89,1411.32 687.89,1421.99 642.5,1427C 621.959,1440.96 617.126,1459.13 628,1481.5C 636.343,1487.59 645.51,1491.92 655.5,1494.5C 736.946,1485.86 810.946,1458.03 877.5,1411C 895.569,1393.92 915.069,1378.76 936,1365.5C 957.333,1338.83 978.667,1312.17 1000,1285.5C 1021.74,1231.29 1044.07,1177.29 1067,1123.5C 1146.02,1008.39 1255.85,948.72 1396.5,944.5C 1396.5,945.167 1396.5,945.833 1396.5,946.5C 1396.49,948.308 1396.99,949.975 1398,951.5C 1403.89,950.07 1409.72,948.403 1415.5,946.5C 1420.59,946.497 1420.59,947.33 1415.5,949C 1409.34,951.289 1403.01,952.789 1396.5,953.5C 1397.14,968.636 1397.48,983.803 1397.5,999C 1397.48,1013.78 1396.81,1028.45 1395.5,1043C 1397.13,1044.82 1399.13,1046.15 1401.5,1047C 1398.99,1048.25 1396.32,1048.75 1393.5,1048.5C 1393.48,1050.56 1393.15,1052.56 1392.5,1054.5C 1286.05,1050.31 1202.22,1091.64 1141,1178.5C 1121.83,1221.85 1105.17,1266.18 1091,1311.5C 1013.41,1452.37 896.238,1542.2 739.5,1581C 708.638,1587.42 677.638,1593.09 646.5,1598C 623.038,1614.82 620.371,1634.49 638.5,1657C 645.727,1660.11 653.061,1662.95 660.5,1665.5C 887.389,1634.28 1053.89,1517.95 1160,1316.5C 1168.52,1269.92 1186.18,1227.25 1213,1188.5C 1253.74,1148.22 1302.91,1126.56 1360.5,1123.5C 1361.21,1124.4 1362.21,1124.74 1363.5,1124.5C 1363.79,1125.65 1364.62,1126.32 1366,1126.5C 1376.43,1128.21 1386.93,1128.88 1397.5,1128.5C 1397.67,1156.5 1397.5,1184.5 1397,1212.5C 1396.17,1215.79 1395.67,1219.13 1395.5,1222.5C 1379.16,1223.14 1362.83,1223.97 1346.5,1225C 1304.18,1240.32 1273.68,1268.49 1255,1309.5C 1222.94,1417.14 1164.77,1507.64 1080.5,1581C 1001.61,1650.81 911.61,1702.14 810.5,1735C 760.124,1747.51 709.791,1760.18 659.5,1773C 636.59,1792.58 636.924,1811.75 660.5,1830.5C 788.139,1821.01 905.473,1781.51 1012.5,1712C 1116.14,1645.36 1200.64,1559.86 1266,1455.5C 1285.01,1420.13 1298.68,1382.8 1307,1343.5C 1327.79,1302.69 1360.63,1286.35 1405.5,1294.5C 1402.5,1294.5 1399.5,1294.5 1396.5,1294.5C 1396.5,1339.5 1396.5,1384.5 1396.5,1429.5C 1380.33,1425.66 1367.49,1430.66 1358,1444.5C 1350.44,1474.52 1340.11,1503.52 1327,1531.5C 1221.01,1688.6 1080.51,1803.77 905.5,1877C 839.285,1900.89 771.285,1917.55 701.5,1927C 672.115,1944.87 669.449,1965.87 693.5,1990C 695.289,1991.78 697.456,1992.62 700,1992.5C 783.003,1985.04 863.169,1965.87 940.5,1935C 987.833,1910 1035.17,1885 1082.5,1860C 1111.43,1836.06 1141.77,1814.06 1173.5,1794C 1202.59,1761.9 1234.43,1733.06 1269,1707.5C 1294.78,1672.71 1322.45,1639.37 1352,1607.5C 1364.72,1582.33 1379.55,1558.66 1396.5,1536.5C 1395.45,1542.92 1394.12,1549.25 1392.5,1555.5C 1395.25,1583.46 1397.25,1611.46 1398.5,1639.5C 1399.87,1639.66 1401.21,1639.49 1402.5,1639C 1406.72,1635.39 1411.39,1632.56 1416.5,1630.5C 1393.32,1678.89 1364.15,1723.22 1329,1763.5C 1170.73,1935.27 976.559,2045.43 746.5,2094C 725.981,2106.91 721.481,2124.08 733,2145.5C 739.738,2152.7 748.071,2156.7 758,2157.5C 890.813,2135.32 1013.31,2087.48 1125.5,2014C 1205.66,1962.56 1278.83,1902.06 1345,1832.5C 1360.2,1816.3 1375.04,1799.8 1389.5,1783C 1391.81,1782.5 1394.14,1782.34 1396.5,1782.5C 1397.04,1782.56 1397.38,1782.89 1397.5,1783.5C 1394.95,1811.97 1394.95,1840.47 1397.5,1869C 1396.9,1893.06 1394.24,1916.9 1389.5,1940.5C 1389.83,1941.5 1390.17,1942.5 1390.5,1943.5C 1393.47,1944.8 1395.8,1946.8 1397.5,1949.5C 1361.25,1958.42 1326.59,1971.58 1293.5,1989C 1195.84,2074.21 1088.18,2144.88 970.5,2201C 928.456,2217.13 885.789,2231.46 842.5,2244C 822.483,2258.07 817.649,2276.24 828,2298.5C 835.007,2304 843.007,2307 852,2307.5C 910.666,2295.06 967.166,2276.22 1021.5,2251C 1068.34,2224.41 1115.34,2198.08 1162.5,2172C 1188.56,2149.14 1216.23,2128.48 1245.5,2110C 1265.17,2091.67 1284.83,2073.33 1304.5,2055C 1329.6,2039.69 1356.6,2029.19 1385.5,2023.5C 1386.22,2025.89 1387.89,2027.39 1390.5,2028C 1392.81,2028.5 1395.14,2028.66 1397.5,2028.5C 1398.25,2057.27 1396.92,2085.93 1393.5,2114.5C 1393.83,2115.83 1394.17,2117.17 1394.5,2118.5C 1398.39,2120.27 1402.06,2122.27 1405.5,2124.5C 1359.46,2133.02 1320.13,2153.85 1287.5,2187C 1181.74,2275.09 1064.08,2344.09 934.5,2394C 924.39,2409.46 923.89,2425.3 933,2441.5C 938.879,2447.27 945.879,2450.94 954,2452.5C 1041.24,2420.13 1124.41,2379.63 1203.5,2331C 1254.93,2293.91 1304.93,2254.91 1353.5,2214C 1367.07,2205.75 1381.74,2200.59 1397.5,2198.5C 1397.5,2236.5 1397.5,2274.5 1397.5,2312.5C 1394.83,2312.5 1392.17,2312.5 1389.5,2312.5C 1389.5,2313.5 1389.5,2314.5 1389.5,2315.5C 1390.79,2315.26 1391.79,2315.6 1392.5,2316.5C 1383.19,2320.88 1373.53,2324.38 1363.5,2327C 1278.79,2395.6 1187.13,2453.93 1088.5,2502C 1064.12,2528.64 1068.28,2549.81 1101,2565.5C 1158.62,2541.95 1212.45,2512.12 1262.5,2476C 1303.11,2456.02 1339.11,2429.69 1370.5,2397C 1379.16,2393.42 1388.16,2391.25 1397.5,2390.5C 1396.75,2394.33 1394.75,2397.33 1391.5,2399.5C 1390.57,2400.69 1390.24,2402.02 1390.5,2403.5C 1392.83,2403.5 1395.17,2403.5 1397.5,2403.5C 1397.5,2439.83 1397.5,2476.17 1397.5,2512.5C 1394.5,2512.5 1391.5,2512.5 1388.5,2512.5C 1388.5,2513.5 1388.5,2514.5 1388.5,2515.5C 1395.7,2516.6 1402.36,2519.1 1408.5,2523C 1409.25,2523.67 1409.59,2524.5 1409.5,2525.5C 1394.18,2524.22 1378.85,2524.72 1363.5,2527C 1335.21,2540.14 1307.88,2554.81 1281.5,2571C 1274.75,2577.36 1268.58,2584.19 1263,2591.5C 1254.68,2604.84 1254.34,2618.5 1262,2632.5C 1270.78,2640.08 1280.95,2642.58 1292.5,2640C 1295.58,2639.65 1298.58,2638.99 1301.5,2638C 1325.83,2624.33 1350.17,2610.67 1374.5,2597C 1380.32,2594.94 1386.32,2594.11 1392.5,2594.5C 1395.61,2808.82 1398.61,3023.16 1401.5,3237.5C 1398.43,3238.85 1395.43,3240.18 1392.5,3241.5C 1391.17,3241.5 1389.83,3241.5 1388.5,3241.5C 995.199,3060.06 671.032,2794.06 416,2443.5C 388.977,2396.17 359.977,2350.17 329,2305.5C 180.314,2043.78 85.6473,1763.45 45,1464.5C 13.3265,1263.25 -1.84015,1060.92 -0.5,857.5C -0.5,838.167 -0.5,818.833 -0.5,799.5C 0.3607,682.65 2.19403,565.65 5,448.5C 6.10491,438.642 8.10491,428.975 11,419.5C 12.5,416.667 14.6667,414.5 17.5,413C 23.2477,412.127 28.581,410.127 33.5,407C 38.7695,405.894 44.1028,405.227 49.5,405C 122.508,403.306 195.508,401.306 268.5,399C 412.225,380.588 554.559,354.588 695.5,321C 944.838,253.972 1174.5,146.806 1384.5,-0.5 Z"/></g>
<g><path style="opacity:1" fill="#867e16" d="M 1397.5,3.5 C 1397.83,3.5 1398.17,3.5 1398.5,3.5C 1398.5,178.5 1398.5,353.5 1398.5,528.5C 1410.19,528.946 1421.86,529.78 1433.5,531C 1434.76,531.417 1435.42,532.25 1435.5,533.5C 1435.17,533.5 1434.83,533.5 1434.5,533.5C 1434.08,532.778 1433.42,532.278 1432.5,532C 1420.86,530.78 1409.19,529.946 1397.5,529.5C 1397.5,354.167 1397.5,178.833 1397.5,3.5 Z"/></g>
<g><path style="opacity:1" fill="#645c06" d="M 1398.5,3.5 C 1406.96,4.48518 1414.96,6.98518 1422.5,11C 1565.77,113.648 1721.1,194.648 1888.5,254C 1989.62,290.93 2092.62,321.597 2197.5,346C 2383.88,381.524 2571.88,402.857 2761.5,410C 2771.97,415.139 2778.81,423.305 2782,434.5C 2783.03,448.481 2783.7,462.481 2784,476.5C 2784.33,508.5 2784.67,540.5 2785,572.5C 2785.9,578.135 2786.4,583.802 2786.5,589.5C 2786.75,608.528 2787.41,627.528 2788.5,646.5C 2788.17,692.336 2788.5,738.003 2789.5,783.5C 2789.5,814.833 2789.5,846.167 2789.5,877.5C 2788.17,882.5 2788.17,887.5 2789.5,892.5C 2789.5,902.5 2789.5,912.5 2789.5,922.5C 2785.29,965.609 2783.95,1008.94 2785.5,1052.5C 2784.85,1057.53 2784.02,1062.53 2783,1067.5C 2778.61,1164.27 2771.28,1261.6 2761,1359.5C 2735.68,1591.44 2679.35,1815.44 2592,2031.5C 2461.53,2344.32 2269.36,2612.82 2015.5,2837C 1864.08,2969.07 1700.08,3083.41 1523.5,3180C 1490.66,3197.59 1457.66,3214.92 1424.5,3232C 1417.3,3234.47 1409.97,3236.3 1402.5,3237.5C 1399.63,3023.16 1396.63,2808.82 1393.5,2594.5C 1419.95,2599.89 1443.28,2611.39 1463.5,2629C 1479.37,2639.03 1496.03,2640.7 1513.5,2634C 1524.03,2623.05 1527.2,2610.22 1523,2595.5C 1490.9,2563.69 1453.4,2540.36 1410.5,2525.5C 1410.65,2524.45 1410.48,2523.45 1410,2522.5C 1403.72,2518.45 1396.88,2515.61 1389.5,2514C 1392.48,2513.5 1395.48,2513.34 1398.5,2513.5C 1398.5,2476.5 1398.5,2439.5 1398.5,2402.5C 1396.08,2402.81 1393.74,2402.47 1391.5,2401.5C 1395.6,2398.97 1397.93,2395.3 1398.5,2390.5C 1412.78,2389.49 1425.78,2392.99 1437.5,2401C 1476.43,2433.92 1514.76,2467.59 1552.5,2502C 1589.52,2523.84 1625.52,2547.17 1660.5,2572C 1675.44,2575.78 1686.61,2570.94 1694,2557.5C 1700.45,2547.18 1701.12,2536.51 1696,2525.5C 1692.67,2519.69 1688.51,2514.53 1683.5,2510C 1610.08,2464.59 1542.08,2411.92 1479.5,2352C 1463.49,2343.33 1448.16,2333.67 1433.5,2323C 1419.86,2321.89 1406.52,2319.72 1393.5,2316.5C 1393.12,2315.07 1392.12,2314.24 1390.5,2314C 1393.15,2313.5 1395.81,2313.34 1398.5,2313.5C 1398.5,2275.17 1398.5,2236.83 1398.5,2198.5C 1454.06,2195.65 1495.9,2217.98 1524,2265.5C 1546.83,2287 1569.67,2308.5 1592.5,2330C 1645.27,2369.23 1699.61,2406.23 1755.5,2441C 1776.25,2451.88 1797.58,2461.38 1819.5,2469.5C 1837.7,2464.3 1848.03,2452.3 1850.5,2433.5C 1846.48,2423.28 1840.81,2414.11 1833.5,2406C 1754.25,2366.66 1681.09,2318.49 1614,2261.5C 1581.5,2223.67 1546.33,2188.5 1508.5,2156C 1476.86,2137.51 1442.86,2127.01 1406.5,2124.5C 1403.47,2121.47 1399.81,2119.13 1395.5,2117.5C 1395.17,2116.5 1394.83,2115.5 1394.5,2114.5C 1397.96,2085.61 1399.29,2056.61 1398.5,2027.5C 1393.69,2028.26 1389.69,2026.93 1386.5,2023.5C 1446.65,2012.29 1500.98,2025.12 1549.5,2062C 1651.69,2178.91 1772.69,2270.91 1912.5,2338C 1939.11,2342.07 1954.44,2330.73 1958.5,2304C 1957.28,2294.55 1952.94,2286.89 1945.5,2281C 1852.86,2234.21 1766.53,2178.21 1686.5,2113C 1644.81,2070.97 1602.81,2029.31 1560.5,1988C 1510.3,1959.45 1456.3,1946.62 1398.5,1949.5C 1396.53,1945.87 1393.87,1942.87 1390.5,1940.5C 1397.99,1901.95 1399.99,1863.12 1396.5,1824C 1396.93,1810.48 1397.6,1796.98 1398.5,1783.5C 1398.25,1782.29 1397.59,1781.62 1396.5,1781.5C 1428.08,1736.03 1456.92,1688.69 1483,1639.5C 1531.25,1533.95 1542.58,1424.62 1517,1311.5C 1493.73,1259.07 1453.56,1229.41 1396.5,1222.5C 1396.8,1219.48 1397.3,1216.48 1398,1213.5C 1398.5,1184.84 1398.67,1156.17 1398.5,1127.5C 1386.64,1128.1 1374.97,1127.1 1363.5,1124.5C 1362.21,1124.74 1361.21,1124.4 1360.5,1123.5C 1361.5,1123.5 1362.5,1123.5 1363.5,1123.5C 1378.91,1123.82 1394.24,1123.48 1409.5,1122.5C 1500.53,1131.37 1565.03,1177.37 1603,1260.5C 1637.48,1392.46 1629.48,1521.8 1579,1648.5C 1553.33,1697.17 1527.67,1745.83 1502,1794.5C 1492.76,1820.79 1499.26,1842.29 1521.5,1859C 1558.73,1873.11 1593.07,1892.11 1624.5,1916C 1657.9,1948.07 1689.9,1981.4 1720.5,2016C 1771.53,2058.03 1824.53,2097.36 1879.5,2134C 1907.42,2146.62 1934.09,2161.29 1959.5,2178C 1976.64,2185.32 1993.97,2192.16 2011.5,2198.5C 2047.73,2185.33 2053.4,2164.16 2028.5,2135C 1997.83,2121 1967.17,2107 1936.5,2093C 1923.39,2082.56 1909.72,2072.89 1895.5,2064C 1878.42,2053.93 1861.09,2044.27 1843.5,2035C 1811.93,2011.77 1782.43,1985.94 1755,1957.5C 1741.8,1943.3 1728.96,1928.8 1716.5,1914C 1689.42,1889.58 1661.76,1865.92 1633.5,1843C 1614.64,1832.07 1595.31,1821.9 1575.5,1812.5C 1571.73,1808.2 1570.56,1803.2 1572,1797.5C 1597.33,1746.83 1622.67,1696.17 1648,1645.5C 1692.06,1525.68 1700.73,1403.35 1674,1278.5C 1645.32,1181.83 1584.82,1113.33 1492.5,1073C 1460.52,1061.37 1427.52,1055.2 1393.5,1054.5C 1394.3,1052.96 1394.63,1051.29 1394.5,1049.5C 1403.9,1049.28 1404.57,1047.11 1396.5,1043C 1397.82,1028.55 1398.49,1013.89 1398.5,999C 1398.5,984.261 1398.16,969.594 1397.5,955C 1405.12,953.762 1412.45,951.596 1419.5,948.5C 1420.39,947.675 1420.72,946.675 1420.5,945.5C 1418.83,945.5 1417.17,945.5 1415.5,945.5C 1415.5,945.167 1415.5,944.833 1415.5,944.5C 1492.95,955.907 1563.28,984.407 1626.5,1030C 1736.63,1128.99 1788.96,1252.99 1783.5,1402C 1772.68,1555.31 1824.35,1682.98 1938.5,1785C 1985.84,1820.19 2036.84,1849.52 2091.5,1873C 2121.31,1882.92 2139.31,1872.42 2145.5,1841.5C 2144.43,1834.8 2142.27,1828.47 2139,1822.5C 2119.82,1814.5 2100.65,1806.33 2081.5,1798C 1986.78,1751.94 1915.94,1681.78 1869,1587.5C 1860.14,1562.07 1853.47,1536.07 1849,1509.5C 1857.14,1404.4 1847.14,1301.07 1819,1199.5C 1796.43,1137.32 1763.43,1081.66 1720,1032.5C 1713.76,1025.59 1706.93,1019.43 1699.5,1014C 1691.5,1005.33 1683.5,996.667 1675.5,988C 1585.14,914.924 1481.48,877.091 1364.5,874.5C 1363.77,872.955 1362.44,872.122 1360.5,872C 1373.16,871.5 1385.83,871.333 1398.5,871.5C 1398.5,838.833 1398.5,806.167 1398.5,773.5C 1439.71,774.84 1480.38,780.34 1520.5,790C 1716.13,854.295 1846.63,984.128 1912,1179.5C 1939.56,1287.13 1950.9,1396.46 1946,1507.5C 1955.41,1550.82 1974.24,1589.32 2002.5,1623C 2033.92,1649.87 2066.26,1675.54 2099.5,1700C 2130.35,1717.38 2151.35,1709.38 2162.5,1676C 2159.32,1662.32 2152.32,1650.98 2141.5,1642C 2088.73,1619.23 2047.9,1583.06 2019,1533.5C 2014.99,1522.62 2012.16,1511.45 2010.5,1500C 2016.01,1370.94 1999.51,1244.78 1961,1121.5C 1904.22,978.737 1811.06,866.237 1681.5,784C 1591.44,737.402 1495.78,710.902 1394.5,704.5C 1397.86,671.924 1399.19,639.257 1398.5,606.5C 1390,607.334 1382,606.001 1374.5,602.5C 1503.49,598.412 1622.83,629.912 1732.5,697C 1833.24,759.741 1915.41,841.241 1979,941.5C 2003.15,992.142 2026.49,1043.14 2049,1094.5C 2090.6,1228.02 2108.93,1364.68 2104,1504.5C 2122.26,1535.12 2140.26,1535.12 2158,1504.5C 2178.52,1293.57 2136.52,1095.9 2032,911.5C 1957.97,786.804 1858.14,688.304 1732.5,616C 1679.84,592.174 1626.18,570.841 1571.5,552C 1526.77,541.408 1481.43,535.242 1435.5,533.5C 1435.42,532.25 1434.76,531.417 1433.5,531C 1421.86,529.78 1410.19,528.946 1398.5,528.5C 1398.5,353.5 1398.5,178.5 1398.5,3.5 Z M 1716.5,1662.5 C 1728.37,1664.93 1738.7,1670.27 1747.5,1678.5C 1761.91,1722.34 1784.74,1761 1816,1794.5C 1891.84,1879.95 1983.67,1942.12 2091.5,1981C 2109.43,2002.48 2107.09,2021.48 2084.5,2038C 2078.34,2040.26 2072,2040.93 2065.5,2040C 1995.81,2012 1930.14,1977 1868.5,1935C 1847.59,1911.42 1824.26,1890.75 1798.5,1873C 1754.66,1822.21 1718.16,1766.37 1689,1705.5C 1689.87,1685.81 1699.04,1671.47 1716.5,1662.5 Z"/></g>
<g><path style="opacity:0.047" fill="#585957" d="M 2786.5,589.5 C 2787.74,599.813 2788.74,610.147 2789.5,620.5C 2789.5,629.167 2789.5,637.833 2789.5,646.5C 2789.17,646.5 2788.83,646.5 2788.5,646.5C 2787.41,627.528 2786.75,608.528 2786.5,589.5 Z"/></g>
<g><path style="opacity:1" fill="#867e16" d="M 1374.5,602.5 C 1382,606.001 1390,607.334 1398.5,606.5C 1399.19,639.257 1397.86,671.924 1394.5,704.5C 1394.17,704.5 1393.83,704.5 1393.5,704.5C 1396.79,672.255 1398.12,639.921 1397.5,607.5C 1389,608.334 1381,607.001 1373.5,603.5C 1373.5,602.833 1373.83,602.5 1374.5,602.5 Z"/></g>
<g><path style="opacity:1" fill="#807818" d="M 1397.5,773.5 C 1397.83,773.5 1398.17,773.5 1398.5,773.5C 1398.5,806.167 1398.5,838.833 1398.5,871.5C 1385.83,871.333 1373.16,871.5 1360.5,872C 1362.44,872.122 1363.77,872.955 1364.5,874.5C 1364.17,874.5 1363.83,874.5 1363.5,874.5C 1359.69,873.676 1355.69,873.176 1351.5,873C 1366.74,870.786 1382.07,869.952 1397.5,870.5C 1397.5,838.167 1397.5,805.833 1397.5,773.5 Z"/></g>
<g><path style="opacity:0.475" fill="#636362" d="M 1396.5,944.5 C 1402.83,944.5 1409.17,944.5 1415.5,944.5C 1415.5,944.833 1415.5,945.167 1415.5,945.5C 1409.12,945.295 1402.79,945.628 1396.5,946.5C 1396.5,945.833 1396.5,945.167 1396.5,944.5 Z"/></g>
<g><path style="opacity:1" fill="#151715" d="M 1415.5,945.5 C 1415.5,945.833 1415.5,946.167 1415.5,946.5C 1409.72,948.403 1403.89,950.07 1398,951.5C 1396.99,949.975 1396.49,948.308 1396.5,946.5C 1402.79,945.628 1409.12,945.295 1415.5,945.5 Z"/></g>
<g><path style="opacity:1" fill="#877e17" d="M 1415.5,946.5 C 1415.5,946.167 1415.5,945.833 1415.5,945.5C 1417.17,945.5 1418.83,945.5 1420.5,945.5C 1420.72,946.675 1420.39,947.675 1419.5,948.5C 1412.45,951.596 1405.12,953.762 1397.5,955C 1398.16,969.594 1398.5,984.261 1398.5,999C 1398.49,1013.89 1397.82,1028.55 1396.5,1043C 1404.57,1047.11 1403.9,1049.28 1394.5,1049.5C 1394.63,1051.29 1394.3,1052.96 1393.5,1054.5C 1393.17,1054.5 1392.83,1054.5 1392.5,1054.5C 1393.15,1052.56 1393.48,1050.56 1393.5,1048.5C 1396.32,1048.75 1398.99,1048.25 1401.5,1047C 1399.13,1046.15 1397.13,1044.82 1395.5,1043C 1396.81,1028.45 1397.48,1013.78 1397.5,999C 1397.48,983.803 1397.14,968.636 1396.5,953.5C 1403.01,952.789 1409.34,951.289 1415.5,949C 1420.59,947.33 1420.59,946.497 1415.5,946.5 Z"/></g>
<g><path style="opacity:0.263" fill="#9ea09e" d="M 1409.5,1122.5 C 1394.24,1123.48 1378.91,1123.82 1363.5,1123.5C 1369.78,1117.79 1377.28,1115.13 1386,1115.5C 1392.56,1115.88 1399.06,1116.72 1405.5,1118C 1407.04,1119.37 1408.37,1120.87 1409.5,1122.5 Z"/></g>
<g><path style="opacity:1" fill="#867e16" d="M 1363.5,1124.5 C 1374.97,1127.1 1386.64,1128.1 1398.5,1127.5C 1398.67,1156.17 1398.5,1184.84 1398,1213.5C 1397.3,1216.48 1396.8,1219.48 1396.5,1222.5C 1396.17,1222.5 1395.83,1222.5 1395.5,1222.5C 1395.67,1219.13 1396.17,1215.79 1397,1212.5C 1397.5,1184.5 1397.67,1156.5 1397.5,1128.5C 1386.93,1128.88 1376.43,1128.21 1366,1126.5C 1364.62,1126.32 1363.79,1125.65 1363.5,1124.5 Z"/></g>
<g><path style="opacity:1" fill="#877f16" d="M 1405.5,1294.5 C 1405.83,1294.5 1406.17,1294.5 1406.5,1294.5C 1403.71,1295.48 1400.71,1295.81 1397.5,1295.5C 1397.5,1340.17 1397.5,1384.83 1397.5,1429.5C 1397.17,1429.5 1396.83,1429.5 1396.5,1429.5C 1396.5,1384.5 1396.5,1339.5 1396.5,1294.5C 1399.5,1294.5 1402.5,1294.5 1405.5,1294.5 Z"/></g>
<g><path style="opacity:1" fill="#635c05" d="M 1406.5,1294.5 C 1433.47,1300.63 1451.97,1316.63 1462,1342.5C 1478.32,1443.09 1463.49,1538.76 1417.5,1629.5C 1411.17,1631.14 1405.51,1634.14 1400.5,1638.5C 1399.72,1637.27 1399.22,1635.94 1399,1634.5C 1398.11,1608.1 1396.28,1581.77 1393.5,1555.5C 1393.78,1551.26 1394.95,1547.26 1397,1543.5C 1397.8,1540.63 1397.63,1537.97 1396.5,1535.5C 1404.7,1511.74 1411.36,1487.57 1416.5,1463C 1415.7,1448.54 1409.36,1437.38 1397.5,1429.5C 1397.5,1384.83 1397.5,1340.17 1397.5,1295.5C 1400.71,1295.81 1403.71,1295.48 1406.5,1294.5 Z"/></g>
<g><path style="opacity:1" fill="#887f17" d="M 1396.5,1535.5 C 1397.63,1537.97 1397.8,1540.63 1397,1543.5C 1394.95,1547.26 1393.78,1551.26 1393.5,1555.5C 1396.28,1581.77 1398.11,1608.1 1399,1634.5C 1399.22,1635.94 1399.72,1637.27 1400.5,1638.5C 1405.51,1634.14 1411.17,1631.14 1417.5,1629.5C 1417.5,1630.17 1417.17,1630.5 1416.5,1630.5C 1411.39,1632.56 1406.72,1635.39 1402.5,1639C 1401.21,1639.49 1399.87,1639.66 1398.5,1639.5C 1397.25,1611.46 1395.25,1583.46 1392.5,1555.5C 1394.12,1549.25 1395.45,1542.92 1396.5,1536.5C 1396.5,1536.17 1396.5,1535.83 1396.5,1535.5 Z"/></g>
<g><path style="opacity:1" fill="#867e16" d="M 1396.5,1782.5 C 1396.5,1782.17 1396.5,1781.83 1396.5,1781.5C 1397.59,1781.62 1398.25,1782.29 1398.5,1783.5C 1397.6,1796.98 1396.93,1810.48 1396.5,1824C 1399.99,1863.12 1397.99,1901.95 1390.5,1940.5C 1393.87,1942.87 1396.53,1945.87 1398.5,1949.5C 1398.17,1949.5 1397.83,1949.5 1397.5,1949.5C 1395.8,1946.8 1393.47,1944.8 1390.5,1943.5C 1390.17,1942.5 1389.83,1941.5 1389.5,1940.5C 1394.24,1916.9 1396.9,1893.06 1397.5,1869C 1394.95,1840.47 1394.95,1811.97 1397.5,1783.5C 1397.38,1782.89 1397.04,1782.56 1396.5,1782.5 Z"/></g>
<g><path style="opacity:1" fill="#867e16" d="M 1385.5,2023.5 C 1385.83,2023.5 1386.17,2023.5 1386.5,2023.5C 1389.69,2026.93 1393.69,2028.26 1398.5,2027.5C 1399.29,2056.61 1397.96,2085.61 1394.5,2114.5C 1394.83,2115.5 1395.17,2116.5 1395.5,2117.5C 1399.81,2119.13 1403.47,2121.47 1406.5,2124.5C 1406.17,2124.5 1405.83,2124.5 1405.5,2124.5C 1402.06,2122.27 1398.39,2120.27 1394.5,2118.5C 1394.17,2117.17 1393.83,2115.83 1393.5,2114.5C 1396.92,2085.93 1398.25,2057.27 1397.5,2028.5C 1395.14,2028.66 1392.81,2028.5 1390.5,2028C 1387.89,2027.39 1386.22,2025.89 1385.5,2023.5 Z"/></g>
<g><path style="opacity:1" fill="#867e16" d="M 1397.5,2198.5 C 1397.83,2198.5 1398.17,2198.5 1398.5,2198.5C 1398.5,2236.83 1398.5,2275.17 1398.5,2313.5C 1395.81,2313.34 1393.15,2313.5 1390.5,2314C 1392.12,2314.24 1393.12,2315.07 1393.5,2316.5C 1393.17,2316.5 1392.83,2316.5 1392.5,2316.5C 1391.79,2315.6 1390.79,2315.26 1389.5,2315.5C 1389.5,2314.5 1389.5,2313.5 1389.5,2312.5C 1392.17,2312.5 1394.83,2312.5 1397.5,2312.5C 1397.5,2274.5 1397.5,2236.5 1397.5,2198.5 Z"/></g>
<g><path style="opacity:1" fill="#867e16" d="M 1397.5,2390.5 C 1397.83,2390.5 1398.17,2390.5 1398.5,2390.5C 1397.93,2395.3 1395.6,2398.97 1391.5,2401.5C 1393.74,2402.47 1396.08,2402.81 1398.5,2402.5C 1398.5,2439.5 1398.5,2476.5 1398.5,2513.5C 1395.48,2513.34 1392.48,2513.5 1389.5,2514C 1396.88,2515.61 1403.72,2518.45 1410,2522.5C 1410.48,2523.45 1410.65,2524.45 1410.5,2525.5C 1410.17,2525.5 1409.83,2525.5 1409.5,2525.5C 1409.59,2524.5 1409.25,2523.67 1408.5,2523C 1402.36,2519.1 1395.7,2516.6 1388.5,2515.5C 1388.5,2514.5 1388.5,2513.5 1388.5,2512.5C 1391.5,2512.5 1394.5,2512.5 1397.5,2512.5C 1397.5,2476.17 1397.5,2439.83 1397.5,2403.5C 1395.17,2403.5 1392.83,2403.5 1390.5,2403.5C 1390.24,2402.02 1390.57,2400.69 1391.5,2399.5C 1394.75,2397.33 1396.75,2394.33 1397.5,2390.5 Z"/></g>
<g><path style="opacity:1" fill="#867e16" d="M 1392.5,2594.5 C 1392.83,2594.5 1393.17,2594.5 1393.5,2594.5C 1396.63,2808.82 1399.63,3023.16 1402.5,3237.5C 1402.17,3237.5 1401.83,3237.5 1401.5,3237.5C 1398.61,3023.16 1395.61,2808.82 1392.5,2594.5 Z"/></g>
</svg>
