<?xml version="1.0" ?><svg viewBox="0 0 512 512" xmlns="http://www.w3.org/2000/svg"><defs><style>.cls-1{fill:#ffc107;}.cls-1,.cls-2{stroke:#000;stroke-linecap:round;stroke-linejoin:round;stroke-width:20px;}.cls-2{fill:#ffa000;}</style></defs><g data-name="Layer 2" id="Layer_2"><g data-name="google analytics" id="google_analytics"><path class="cls-1" d="M314.31,163.72H169.59c-8,0-14,7.17-14,15.66V318H24.86A15.09,15.09,0,0,0,10,333.13V486.88A15,15,0,0,0,24.86,502H314.31c8,0,14-6.64,14-15.12V179.38C328.32,170.89,322.3,163.72,314.31,163.72Z"/><path class="cls-2" d="M487.53,10H342.8c-8,0-14.48,6.89-14.48,15.38V486.62c0,8.49,6.49,15.38,14.48,15.38H487.53c8,0,14.47-6.89,14.47-15.38V25.38C502,16.89,495.52,10,487.53,10Z"/></g></g></svg>